@startuml "transfer-start-message"
!pragma layout smetana

!include ../../../common/style/diagram.styles.puml

hide empty description


class "dspace:TransferStartMessage" {
    @context : "https://w3id.org/dspace/2024/1/context.json"
    @type : "dspace:TransferStartMessage"
    dspace:providerPid : String
    dspace:consumerPid : String
}

class "dspace:DataAddress" {
    @type : "dspace:DataAddress"
    dspace:endpointType : String
    dspace:endpoint : String
}

class "dspace:EndpointProperty" {
    @type : "dspace:EndpointProperty"
    dspace:name : String
    dspace:value : String
}

"dspace:TransferStartMessage" "1" *-- "0..1" "dspace:DataAddress" : "dspace:dataAddress"
"dspace:DataAddress" "1" *-- "0..*" "dspace:EndpointProperty" : "dspace:endpointProperties"


@enduml