@startuml "contract-agreement-verification-message"
!pragma layout smetana

!include ../../diagrams/diagram.styles.puml

hide empty description


class "ids:ContractAgreementVerificationMessage" {
    @context : "https://w3id.org/idsa/v5/context.json"
    @type : "ids:ContractAgreementVerificationMessage"
    ids:processId : String
    cred:credentialSubject : ids:ContractAgreementMessage
    sec:proof : sec:Proof
}

class ids:ContractAgreementMessage {
    @type : "ids:ContractAgreementMessage"
    ids:hash : String
}

class sec:Proof {
    @type : Signature
    dct:created : xsd:dateTime
    sec:jws : String
}

enum Signature {
    sec:EcdsaSecp256k1Signature2019
    sec:EcdsaSecp256k1RecoverySignature2020
    sec:RsaSignature2018
    sec:SchnorrSecp256k1Signature2019
    sec:MerkleProof2019
    sec:Ed25519Signature2020
    sec:JsonWebSignature2020
    sec:BbsBlsSignature2020
    sec:BbsBlsSignatureProof2020
}

"ids:ContractAgreementVerificationMessage" "1" *-- "1" "ids:ContractAgreementMessage" : "cred:credentialSubject"
"ids:ContractAgreementVerificationMessage" "1" *-- "0..2" "sec:Proof" : "sec:proof"
"sec:Proof" "1" *-- "1" Signature : @type

@enduml